<?xml version="1.0" encoding="utf-8"?>
<!-- Generator: Adobe Illustrator 25.4.1, SVG Export Plug-In . SVG Version: 6.00 Build 0)  -->
<svg version="1.1" id="Layer_1" xmlns="http://www.w3.org/2000/svg" x="0px" y="0px" viewBox="0 0 24 24" style="enable-background:new 0 0 24 24;" xml:space="preserve">
<style type="text/css">
	.st0{fill:#F2694A;}
	.st1{fill:#F0CF48;}
	.st2{fill:#60BEC8;}
	.st3{stroke:#D6D6D6;stroke-width:0.5;stroke-miterlimit:10;}
</style>
    <path class="st0" d="M14.1,4.3h-3.3c-0.1,0-0.2-0.1-0.2-0.2V1.7c0-0.1,0.1-0.2,0.2-0.2h3.3c0.1,0,0.2,0.1,0.2,0.2V4
	c0,0.1,0,0.2-0.1,0.3C14.2,4.3,14.1,4.3,14.1,4.3z"/>
    <path class="st1" d="M8.6,13.4H5.3c-0.1,0-0.2-0.1-0.2-0.2v-2.3c0-0.1,0.1-0.2,0.2-0.2h3.3c0.1,0,0.2,0.1,0.2,0.2v2.3
	C8.9,13.3,8.8,13.4,8.6,13.4z"/>
    <path class="st2" d="M19.6,13.4h-3.3c-0.1,0-0.2-0.1-0.2-0.2v-2.3c0-0.1,0.1-0.2,0.2-0.2h3.3c0.1,0,0.2,0.1,0.2,0.2v2.3
	C19.9,13.3,19.8,13.4,19.6,13.4z"/>
    <path class="st1" d="M5.8,21.9H2.5c-0.1,0-0.2-0.1-0.2-0.2v-2.3c0-0.1,0.1-0.2,0.2-0.2h3.3c0.1,0,0.2,0.1,0.2,0.2v2.3
	C6.1,21.8,6,21.9,5.8,21.9z"/>
    <path class="st1" d="M11.3,21.9H8c-0.1,0-0.2-0.1-0.2-0.2v-2.3c0-0.1,0.1-0.2,0.2-0.2h3.3c0.1,0,0.2,0.1,0.2,0.2v2.3
	C11.6,21.8,11.5,21.9,11.3,21.9z"/>
    <path class="st2" d="M16.9,21.9h-3.3c-0.1,0-0.2-0.1-0.2-0.2v-2.3c0-0.1,0.1-0.2,0.2-0.2h3.3c0.1,0,0.2,0.1,0.2,0.2v2.3
	C17.1,21.8,17,21.9,16.9,21.9z"/>
    <path class="st2" d="M22.4,21.9h-3.3c-0.1,0-0.2-0.1-0.2-0.2v-2.3c0-0.1,0.1-0.2,0.2-0.2h3.3c0.1,0,0.2,0.1,0.2,0.2v2.3
	C22.7,21.8,22.6,21.9,22.4,21.9z"/>
    <polygon class="st3" points="18,7.6 18,7.6 12.5,7.6 12.5,5.3 12.5,5.3 12.5,7.6 7,7.6 7,7.6 7,7.6 7,9.4 7,9.4 7,7.7 18,7.7
	18,9.4 18,9.4 "/>
    <polygon class="st3" points="9.7,16.4 9.7,16.4 7,16.4 7,14.1 6.9,14.1 6.9,16.4 4.2,16.4 4.2,16.4 4.2,16.4 4.2,18.1 4.2,18.1
	4.2,16.4 6.9,16.4 7,16.4 9.7,16.4 9.7,18.1 9.7,18.1 "/>
    <polygon class="st3" points="20.7,16.4 20.7,16.4 18,16.4 18,14.1 18,14.1 18,16.4 15.3,16.4 15.3,16.4 15.2,16.4 15.2,18.1
	15.3,18.1 15.3,16.4 18,16.4 18,16.4 20.7,16.4 20.7,18.1 20.7,18.1 "/>
</svg>
